<svg width="118" height="63" viewBox="0 0 118 63" fill="none" xmlns="http://www.w3.org/2000/svg">
<path d="M2.07225 10.5593L7.07225 23.0593C7.57224 27.5595 8.57227 27.0591 10.0723 27.0591C11.5723 27.0591 11.5723 29.5591 11.5723 31.5591C11.5723 33.5591 12.0723 40.0591 12.5723 48.0591C13.0723 56.0591 20.0723 59.5591 25.5723 61.0591C31.0723 62.5591 36.0723 61.0591 37.0723 59.5591C38.0723 58.0591 39.5723 56.0591 40.5723 57.5591C39.7723 59.5591 43.2389 59.7257 45.0723 59.5591H91.5723C111.072 59.5591 111.072 56.5591 116.572 52.5591C118.572 47.3591 113.072 45.7257 110.072 45.5591H89.0723H65.0723C62.0723 42.5591 60.5723 42.5591 58.0723 43.0591C56.0723 43.4591 53.5723 41.2257 52.5723 40.0591C47.4056 35.3924 36.2723 25.4591 33.0723 23.0593C29.0723 20.0595 26.5723 13.5593 23.0723 6.5593C20.2723 0.959303 16.2389 0.22597 14.5723 0.559303C12.9056 0.72597 8.47225 1.1593 4.07225 1.5593C-0.327746 1.9593 0.905588 7.72597 2.07225 10.5593Z" stroke="#FF4040"/>
</svg>
