<svg width="114" height="45" viewBox="0 0 114 45" fill="none" xmlns="http://www.w3.org/2000/svg">
<path d="M65.132 18.8951L44.632 6.39505C41.7987 5.06172 35.232 2.89505 31.632 4.89505C27.132 7.39505 22.632 10.395 17.632 6.39505C13.632 3.19512 14.632 4.06175 15.632 4.89505C14.2986 3.72841 12.4319 1.39514 15.632 1.39514C18.8321 1.39514 79.2991 3.72841 109.133 4.89505C110.799 4.56175 113.833 4.79514 112.633 8.39514C111.633 10.3951 110.633 12.8951 111.633 12.8951C112.633 12.8951 114.133 13.8952 111.633 16.3951C109.133 18.8951 108.633 18.8951 106.133 18.8951C103.633 18.8951 100.133 20.3951 102.133 22.8951C103.733 24.0951 105.466 25.3951 106.133 25.8951C107.133 26.3951 108.333 27.7951 105.133 29.3951C101.133 31.3951 77.6327 42.3951 72.6327 42.8951C67.6327 43.3951 57.6326 44.8951 53.6326 42.8951C49.6326 40.8951 46.6326 38.8951 43.6326 38.8951C41.2326 38.8951 28.6327 38.8951 22.6327 38.8951C20.1327 38.7285 14.7326 38.1951 13.1326 37.3951C11.1326 36.3951 8.13265 36.3951 6.13265 36.3951C4.13265 36.3951 -1.36735 35.8951 1.63265 29.3951C4.63281 27.3951 5.63281 25.8951 8.13281 25.8951C10.6328 25.8951 13.632 26.3951 15.632 28.3951C17.632 30.3951 20.6328 32.3951 25.1328 28.3951C28.1328 26.8951 30.6328 25.8951 34.1328 28.3951C36.9328 30.3951 44.9661 35.2285 48.6328 37.3951C51.4664 38.0618 57.9335 38.9951 61.1328 37.3951C65.132 35.3951 66.1328 35.3951 66.1328 31.8951C66.1328 28.3951 66.6328 26.8951 68.1328 25.8951C69.6328 24.8951 76.6314 23.395 65.132 18.8951Z" stroke="#FF4040"/>
</svg>
