<svg width="119" height="49" viewBox="0 0 119 49" fill="none" xmlns="http://www.w3.org/2000/svg">
<path d="M18.7461 19.1374C12.7461 24.3374 6.24609 34.3041 3.74609 38.6374C0.246094 44.2151 1.24609 45.6375 2.74609 47.6375C7.54609 50.0375 10.7461 46.6375 11.7461 44.6375C12.2461 41.9708 13.2461 36.0375 13.2461 33.6375C13.2461 31.2375 14.5794 29.6375 15.2461 29.1375C16.2461 28.3041 18.3461 26.3375 18.7461 25.1375C19.1461 23.9375 21.5794 23.6375 22.7461 23.6375H28.2461C30.2461 23.6375 29.2461 26.1375 29.2461 29.1375C29.2461 32.1375 31.2461 32.1375 35.2461 32.1375C38.4461 32.1375 38.9128 30.1375 38.7461 29.1375V16.6375C38.7461 13.8375 40.4128 12.4708 41.2461 12.1375C42.9128 11.3041 47.0461 9.33745 50.2461 8.13745C53.4461 6.93745 54.2461 9.63745 54.2461 11.1375C54.0794 18.6375 53.7461 35.2374 53.7461 41.6375C53.3461 46.4375 55.5794 46.9708 56.7461 46.6375H67.7461C74.2461 46.6375 73.7461 41.6375 76.7461 37.6375C79.7461 33.6375 83.7461 34.6375 87.7461 37.6375C90.9461 40.0375 94.4128 40.3041 95.7461 40.1375H114.246C121.046 40.1375 117.079 36.4708 114.246 34.6375C94.7461 24.6374 54.9461 4.23726 51.7461 2.63726C47.7461 0.637257 47.2461 0.137257 47.2461 2.63726C47.2461 4.63726 45.5794 5.80403 44.7461 6.13741C43.2461 5.97075 39.3461 5.73741 35.7461 6.13741C31.2461 6.63741 26.2461 12.6374 18.7461 19.1374Z" stroke="#FF4040"/>
</svg>
