<svg width="116" height="69" viewBox="0 0 116 69" fill="none" xmlns="http://www.w3.org/2000/svg">
<path d="M43.0004 9.91918C44.6671 6.91918 48.4004 1.21918 50.0004 2.41918C52.0004 3.91918 53.0004 6.41927 51.5004 11.4193C50.0004 16.4193 46.0004 22.4193 45.5004 27.4193C45.1004 31.4193 45.3337 37.7526 45.5004 40.4193C46.1671 43.5859 48.7004 49.2193 53.5004 46.4193C59.5004 42.9193 62.0004 34.4193 66.5004 32.9193C71.0004 31.4193 73.5004 29.4193 77.0004 29.9193C80.5004 30.4193 82.5004 32.4193 82.5004 36.4193C82.5004 40.4193 83.0004 44.4193 87.5004 44.4193C92.0004 44.4193 93.5004 46.9193 93.5004 49.4193C93.5004 51.9193 93.5004 54.9193 96.5004 55.4193C99.5004 55.9193 102.5 59.4193 103 61.4193C103.4 63.0193 105.834 65.7526 107 66.9193C109.334 68.4193 114.2 69.4193 115 61.4193C111 53.4193 101.667 38.0859 97.5004 31.4193L93.5004 24.4193C92.1671 23.2526 89.1004 21.0193 87.5004 21.4193C85.9004 21.8193 84.8337 22.2526 84.5004 22.4193C83.8337 23.0859 82.2004 23.8193 81.0004 21.4193C78.5004 20.4193 75.5004 20.4193 73.0004 22.4193C71.0004 24.0193 62.5004 30.7526 58.5004 33.9193C57.3337 36.0859 52.1004 39.1193 40.5004 33.9193C28.9004 28.7193 11.6671 19.0859 4.50039 14.9193C2.83372 13.0859 0.000389159 8.91927 2.00039 6.91927C4.50039 4.41927 7 3.4191 9.5 2.41918C12 1.41927 18 -0.0807297 19.5 4.41927C21 8.91927 22.5 14.9193 24 15.9193C25.5 16.9193 33.5008 24.9191 43.0004 9.91918Z" stroke="#FF4040"/>
</svg>
