<svg width="116" height="35" viewBox="0 0 116 35" fill="none" xmlns="http://www.w3.org/2000/svg">
<path d="M2.99931 6.98502C-0.200693 10.185 1.66597 16.3183 2.99931 18.985C3.64974 20.4849 8.5 21.9851 12.5 22.9851C16.5 23.9851 17 26.4851 17 30.4851C17 33.6851 19.3333 34.4851 20.5 34.4851H107.5C113.5 34.4851 115 29.1518 115 26.4851V13.4851C115 8.98511 108 6.98502 102 3.98511C96 0.985199 93.5 4.98511 93 7.98511C92.5 10.9851 97 11.9851 100 13.4851C103 14.9851 104.5 16.4851 104.5 21.9851C104.5 26.3851 99.5 24.1518 97 22.4851C89.8333 18.3184 73.8 8.98511 67 4.98511C60.2 0.985107 56.8333 3.31844 56 4.98511C53.8333 7.81844 49.1 14.0851 47.5 16.4851C45.5 19.4851 46 21.9851 46 24.9851C46 27.3851 43 27.6518 41.5 27.4851H32.5C28 27.4851 23.5 23.4851 17 19.4851C11.8 16.2851 15.1667 14.1518 17.5 13.4851H26C31 13.4851 34.5 12.9851 38 10.9851C41.5 8.98511 40.5 5.98502 40.5 2.98502C40.5 0.585016 35.8333 0.651682 33.5 0.985016H15.5C10 0.985016 6.99931 2.98502 2.99931 6.98502Z" stroke="#FF4040"/>
</svg>
