<svg width="113" height="63" viewBox="0 0 113 63" fill="none" xmlns="http://www.w3.org/2000/svg">
<path d="M9.38689 29.0816C13.3869 29.5816 23.8869 35.5816 28.8869 39.5816C33.3871 46.5817 54.8867 57.0815 57.3867 58.0815C59.8867 59.0815 60.8867 59.0815 62.3867 61.5815C63.5867 63.5815 67.5534 59.4149 69.3867 57.0815C80.2201 48.2482 103.287 29.3815 108.887 24.5815C115.887 18.5815 109.387 13.5815 105.887 9.08154C103.087 5.48154 97.3867 7.58154 94.8867 9.08154C91.3867 11.4149 81.8867 17.1816 71.8867 21.5816C59.3867 27.0818 56.3867 34.5815 54.8867 39.5816C53.3867 44.5817 46.8867 41.0815 43.3867 39.5816C39.8867 38.0817 37.8867 36.0815 34.8867 30.5815C31.8867 25.0815 39.8867 23.5815 43.3867 21.5816C46.8867 19.5818 53.3867 18.5815 58.3867 16.0815C63.3867 13.5815 62.8867 12.0816 64.8867 5.08165C66.8867 -1.91835 58.8867 2.08165 54.8867 5.08165C50.8867 8.08165 41.3867 10.5816 32.3867 12.0816C23.3867 13.5816 12.8867 19.5816 7.38672 21.5816C1.88672 23.5816 1.88689 24.0816 0.88689 26.5816C-0.11311 29.0816 5.38689 28.5816 9.38689 29.0816Z" stroke="#FF4040"/>
</svg>
