<svg width="114" height="84" viewBox="0 0 114 84" fill="none" xmlns="http://www.w3.org/2000/svg">
<path d="M31.8569 5.70409L29.8569 26.7041C29.0569 35.1041 25.1893 33.2039 23.3555 31.2039C22.1888 27.5372 19.4555 19.0039 17.8555 14.2039C15.8555 8.20386 8.35598 11.7039 3.35598 13.7039C-0.644024 15.3039 0.689309 20.0372 1.85598 22.2039C4.02264 28.3705 8.65617 41.7039 9.85693 45.7039C11.3579 50.7039 15.856 52.2039 18.856 52.7039C21.856 53.2039 23.856 55.2039 27.356 58.7039C29.856 62.2039 24.356 65.7039 18.856 68.2039C13.356 70.7039 13.356 70.7039 9.85693 74.7039C9.05693 81.1039 14.5236 82.7039 17.3569 82.7039H104.857C115.257 82.7039 113.524 75.7039 111.357 72.2039C108.857 68.5372 102.557 59.4039 97.3569 52.2039C92.5569 46.6039 94.0236 42.2039 95.3569 40.7039C98.1903 37.0372 104.757 28.9039 108.357 25.7039C112.857 21.7039 106.857 15.2039 103.857 10.2039C101.457 6.20386 98.1903 5.53734 96.8569 5.70409C94.0236 5.70409 87.7569 6.00404 85.3569 7.20386C82.3569 8.70363 80.8569 15.7039 76.3569 25.7039C71.8569 35.7039 64.3569 41.2039 57.3569 44.2039C50.3569 47.2039 49.8569 41.2039 49.8569 38.2039C49.8569 35.2039 53.3569 29.7039 53.8569 26.7041C54.3569 23.7043 49.8569 19.7039 48.3569 18.7039C46.8569 17.7039 43.8569 13.7039 42.8569 8.20386C41.8569 2.70386 39.3569 2.20409 35.8569 1.20409C33.0569 0.404088 32.0236 3.87075 31.8569 5.70409Z" stroke="#FF4040"/>
</svg>
