<svg width="115" height="69" viewBox="0 0 115 69" fill="none" xmlns="http://www.w3.org/2000/svg">
<path d="M1.94942 22.9691C-0.0505795 27.4691 2.44942 31.9691 5.94942 34.9691C6.78269 35.8025 8.44922 37.8692 8.44922 39.4692C8.44922 41.4692 5.94942 41.9692 4.94922 44.4692C3.94902 46.9692 5.94942 47.4692 9.44922 48.4692C12.949 49.4692 14.9492 50.9692 19.4492 52.4692C23.9492 53.9692 25.4492 53.9692 31.4492 54.4692C37.4492 54.9692 39.4492 55.9692 41.4492 59.4692C43.0492 62.2692 44.7826 62.6358 45.4492 62.4692C57.9492 64.1358 83.9492 67.5692 87.9492 67.9692C92.9492 68.4692 92.4492 63.9692 92.4492 61.4692C92.4492 58.9692 92.4492 58.4692 94.4492 57.9692C96.4492 57.4692 97.9492 58.4692 101.449 60.4692C104.249 62.0692 107.283 61.1358 108.449 60.4692C109.449 58.9692 111.849 55.2692 113.449 52.4692C115.049 49.6692 112.783 46.9692 111.449 45.9692C108.616 44.1358 102.249 39.8692 99.4492 37.4692C96.6492 35.0692 93.6159 34.8025 92.4492 34.9691H82.9492C76.9492 34.9691 78.9492 34.9691 76.4492 37.4692C74.4492 39.4692 73.9492 40.3025 73.9492 40.4692H65.9492C59.4492 40.4692 53.4492 35.9692 47.4492 29.9692C41.4492 23.9692 41.9492 21.4692 41.9492 17.9692C44.3492 15.5692 42.6159 13.3025 41.4492 12.4692C40.9492 11.8025 39.2492 9.86914 36.4492 7.46918C32.9492 4.46923 30.4492 2.46913 26.9492 1.46913C23.4492 0.469128 18.9492 3.96913 16.4492 5.96913C13.9492 7.96913 13.4492 5.96913 10.4492 5.96913C7.44922 5.96913 8.44922 7.96913 8.44922 10.4691C8.44922 12.9691 3.94942 18.4691 1.94942 22.9691Z" stroke="#FF4040"/>
</svg>
