<svg width="120" height="77" viewBox="0 0 120 77" fill="none" xmlns="http://www.w3.org/2000/svg">
<path d="M7.34587 57.1216C5.34587 59.1216 3.84587 64.9549 3.34587 67.6216C-3.1093 79.2215 7.32288 71.4549 13.3459 66.1216C19.5125 60.7882 31.6459 51.0216 30.8459 54.6216C30.0459 58.2216 32.8459 57.7882 34.3459 57.1216C35.3459 56.6216 38.3459 55.4216 42.3459 54.6216C47.3459 53.6216 46.8459 53.6216 47.8459 53.1216C48.8459 52.6216 55.3459 48.6216 58.8459 46.1216C62.3459 43.6216 69.3459 47.1216 73.8459 48.6216C78.3459 50.1216 82.3459 53.6216 84.8459 57.6216C87.3459 61.6216 90.8459 66.1216 92.8459 68.1216C94.8459 70.1216 101.346 73.6216 106.346 75.6216C111.346 77.6216 114.346 74.1216 116.846 69.1216C118.846 65.1216 116.013 62.7882 114.346 62.1216C113.013 61.1216 109.546 58.8216 106.346 57.6216C102.346 56.1216 103.846 54.1216 105.346 50.1216C106.546 46.9216 103.179 44.4549 101.346 43.6216C98.3459 42.9549 90.8459 41.2216 84.8459 39.6216C77.3459 37.6216 76.8459 30.6216 76.8459 27.1216C76.8459 23.6216 80.8459 22.1216 83.3459 21.6216C85.8459 21.1216 95.3459 18.1216 101.346 15.1216C106.146 12.7216 108.346 13.1216 108.846 13.6216C109.346 14.1216 111.146 16.1216 114.346 20.1216C119.946 22.9216 119.346 17.9549 118.346 15.1216L108.846 5.62158C105.846 2.62158 104.846 1.12158 101.346 2.62155C97.8459 4.12152 96.3459 4.12158 93.8459 2.62155C91.8459 0.221551 88.6792 1.62155 87.3459 2.62155C78.1792 6.78822 58.4459 15.7216 52.8459 18.1216C45.8459 21.1216 37.8459 27.6216 35.8459 30.6216C33.8459 33.6216 29.3459 33.6216 26.3459 34.1216C23.3459 34.6216 23.3459 38.6216 21.8459 41.6216C20.3459 44.6216 9.84587 54.6216 7.34587 57.1216Z" stroke="#FF4040"/>
</svg>
