<svg width="101" height="65" viewBox="0 0 101 65" fill="none" xmlns="http://www.w3.org/2000/svg">
<path d="M46.9989 5.43055L29.9989 54.4306C28.3337 59.2305 25.6378 59.7639 24.498 59.4307H11.498C8.49805 59.4307 5.99895 59.4307 2.49895 61.4307C-0.301051 63.0307 1.99895 64.0973 3.49895 64.4307H90.4989C98.4989 64.4307 98.4989 60.4307 99.9989 56.4307C99.9989 51.2307 95.3323 49.9307 92.9989 49.9307C88.9989 49.4307 88.9989 50.9307 89.4989 54.4306C89.8989 57.2305 87.9989 56.9306 86.9989 56.4307H59.4989C56.4989 56.4307 54.4989 54.9307 53.9989 52.9307C51.5989 48.1307 54.3323 47.9307 55.9989 48.4307H63.4989C70.299 45.6307 67.9989 39.5973 65.9989 36.9307C65.1656 35.9307 63.2989 33.1307 62.4989 29.9307C61.4989 25.9307 65.4989 22.4307 67.4989 20.9307C69.4989 19.4307 73.4989 20.4307 77.9989 20.9307C82.4989 21.4307 86.4989 21.4307 91.9989 19.4307C96.3989 17.8307 93.8323 16.0973 91.9989 15.4307C90.4989 15.0973 86.299 14.0307 81.4989 12.4307C76.6989 10.8307 74.1656 11.764 73.4989 12.4307C69.9989 12.9307 61.9989 14.0307 57.9989 14.4307C52.9989 14.9307 51.9989 12.4307 50.9989 11.4307C49.9989 10.4307 50.4989 4.43066 53.9989 7.93066C57.4989 11.4307 58.9989 10.4307 60.4989 7.93066C61.9989 5.43066 59.9989 3.93055 55.9989 1.43055C52.7989 -0.569447 48.6656 3.26389 46.9989 5.43055Z" stroke="#FF4040"/>
</svg>
