<svg width="114" height="69" viewBox="0 0 114 69" fill="none" xmlns="http://www.w3.org/2000/svg">
<path d="M21.2951 12.0799C21.2951 13.5799 17.2951 15.0799 13.2951 19.0799C11.4617 20.7465 7.09507 24.2798 4.29507 25.0798C0.795073 26.0798 0.295073 27.5798 0.795073 32.5798C1.19507 36.5798 5.62841 38.9132 7.79507 39.5798C19.9617 45.5798 44.8951 57.8798 47.2951 59.0798C50.2951 60.5798 50.7951 65.0798 53.2951 67.5798C55.7951 70.0798 59.7951 66.0798 61.2951 64.0798C62.7951 62.0798 65.7951 64.0798 69.2951 66.0798C72.7951 68.0798 75.2951 65.5798 77.7951 64.0798C80.2951 62.5798 79.7951 62.5798 83.2951 62.5798H93.2951C97.7951 62.5798 103.295 60.5798 108.795 59.0798C113.195 57.8798 113.295 52.9132 112.795 50.5798C112.295 47.0798 111.195 37.8798 110.795 29.0798C110.395 20.2798 104.962 16.0798 102.295 15.0798C98.4617 12.5798 90.3951 8.67983 88.7951 13.0798C87.1951 17.4798 91.1284 18.9132 93.2951 19.0799C94.9617 18.7465 98.5951 18.5798 99.7951 20.5798C100.995 22.5798 97.9617 27.0798 96.2951 29.0798C90.1284 35.4132 77.0951 48.8798 74.2951 52.0798C71.4951 55.2798 67.4617 54.7465 65.7951 54.0798C64.4617 53.4132 60.9951 51.7798 57.7951 50.5798C53.7951 49.0798 59.7951 47.0798 63.2951 45.5798C66.0951 44.3798 65.1284 43.4132 64.2951 43.0798C62.9617 41.9132 59.7951 39.1798 57.7951 37.5798C55.2951 35.5798 55.2951 33.0798 56.7951 27.5798C57.9951 23.1798 56.2951 20.0799 55.2951 19.0799L50.7951 16.5798C46.4617 13.9132 36.7951 7.57989 32.7951 3.57989C27.7951 -1.42011 26.2951 2.07989 23.7951 2.57989C21.2951 3.07989 19.7951 5.57989 19.7951 8.57989C19.7951 11.5799 21.2951 10.5799 21.2951 12.0799Z" stroke="#FF4040"/>
</svg>
