<svg width="115" height="49" viewBox="0 0 115 49" fill="none" xmlns="http://www.w3.org/2000/svg">
<path d="M4.50984 33.0035C4.50984 37.0035 3.50984 37.5035 1.00984 40.0035C0.609836 40.8034 1.50984 42.3368 2.00984 43.0035C2.50984 44.0035 4.50984 44.5035 8.50984 47.0035C12.5098 49.5035 14.0098 47.0035 14.0098 46.0035C14.0098 45.0035 13.0098 44.0035 11.5098 43.0035C10.3098 42.2035 10.3432 40.6702 10.5098 40.0035V34.0035C10.5098 31.5035 11.5098 32.0035 12.0098 29.0035C12.5098 26.0035 14.0098 26.5035 15.5098 27.0035C16.7098 27.4035 18.0098 26.8369 18.5098 26.5035L21.5098 23.5035C23.0098 22.0034 21.0098 20.0035 20.0098 18.5035C19.2098 17.3035 20.0098 15.6702 20.5098 15.0035C21.5098 13.8369 23.7098 11.3035 24.5098 10.5035C25.5098 9.50354 28.0098 7.50354 30.5098 7.00354C32.5098 6.60354 36.0098 8.17021 37.5098 9.00354C40.8432 10.8369 47.9098 14.8035 49.5098 16.0035C51.5098 17.5035 49.5098 20.0035 50.0098 22.0035C50.5098 24.0035 52.0098 23.5035 53.0098 23.5035C54.0098 23.5035 55.0098 22.5035 57.0098 21.0035C58.6098 21.0035 62.0098 23.3369 63.5098 24.5035C65.1765 25.1702 70.0098 27.2035 76.0098 30.0035C84.8098 35.2036 94.0098 32.1702 97.5098 30.0035C101.343 27.1702 109.71 21.0035 112.51 19.0035C116.01 16.5035 112.51 15.0035 110.51 13.5035C108.51 12.0035 108.01 14.0035 105.51 17.0035C103.01 20.0035 101.51 18.5035 101.01 17.0035C100.51 15.5035 102.01 13.5035 104.51 11.5035C109.31 5.90354 106.51 5.50351 104.51 6.00349C103.01 6.67017 99.2098 8.20354 96.0098 9.00354C92.0098 10.0035 89.5098 9.50354 85.5098 11.5035C81.5098 13.5035 82.5098 15.5035 82.5098 20.0035C78.5098 30.0035 71.5098 21.5035 68.5098 20.0035C65.5098 18.5035 65.0098 17.5035 61.5098 17.0035C58.0098 16.5035 55.0098 15.0035 47.5098 11.5035C40.0098 8.00354 37.0098 6.00349 32.0098 2.50349C27.0098 -0.996512 26.5098 3.50349 23.5098 6.00349C20.5098 8.50349 13.0098 16.0035 8.50984 23.5035C4.00984 31.0035 4.50984 29.0035 4.50984 33.0035Z" stroke="#FF4040"/>
</svg>
