<svg width="116" height="68" viewBox="0 0 116 68" fill="none" xmlns="http://www.w3.org/2000/svg">
<path d="M2.55165 36.3743C-2.24835 38.3743 3.21832 42.541 6.55165 44.3743C12.718 48.7077 26.9508 58.7745 34.5508 64.3745C42.1508 69.9745 41.7174 66.7078 40.5508 64.3745C39.8841 63.0412 38.2508 59.3745 37.0508 55.3745C35.5508 50.3745 41.5508 49.3745 45.0508 46.8745C48.5508 44.3745 50.5508 42.3745 51.0508 39.8745C51.5508 37.3745 54.0508 36.3743 56.0508 35.8745C58.0508 35.3747 58.0508 33.3743 58.0508 31.3745C58.0508 29.3747 59.5508 26.3745 60.5508 24.8745C61.5508 23.3745 66.5508 24.8745 70.5508 26.3745C74.5508 27.8745 78.5508 23.3745 79.0508 21.8745C79.5508 20.3745 81.5508 19.3745 84.5508 21.8745C86.9508 23.8745 88.5508 23.3745 89.0508 22.8745C89.7174 22.8745 91.9508 22.6745 95.5508 21.8745C99.1508 21.0745 101.717 18.5412 102.551 17.3745C104.384 14.8745 109.151 8.67448 113.551 3.87448C119.051 -2.12552 107.551 1.87448 101.551 3.87448C90.5508 9.37448 47.0508 16.3745 43.0508 16.3745C39.8508 16.3745 40.7174 18.3745 41.5508 19.3745C42.3841 20.3745 44.5508 22.8745 46.5508 24.8745C49.0508 27.3745 48.0508 28.8745 45.0508 29.8745C42.0508 30.8745 42.0508 28.8745 42.0508 27.8745C41.0508 25.3745 39.5508 23.8745 37.0508 22.8745C31.0508 20.3745 33.5508 24.3745 37.0508 30.3745C40.5508 36.3745 38.0508 39.3745 34.5508 42.3745C26.5508 46.8745 24.0508 38.8743 20.5508 33.3743C17.0508 27.8743 8.55165 33.8743 2.55165 36.3743Z" stroke="#FF4040"/>
</svg>
