<svg width="115" height="74" viewBox="0 0 115 74" fill="none" xmlns="http://www.w3.org/2000/svg">
<path d="M24.6359 58.9544C31.8359 60.5544 54.6359 66.9544 65.1359 69.9544C86.1352 77.9544 84.6367 69.9544 86.1367 61.9543C87.3367 55.5543 83.9701 50.9543 82.1367 49.4543C75.4701 44.621 60.4367 33.8543 53.6367 29.4543C45.1367 23.9543 49.1367 15.4543 52.1367 11.4543C55.1367 7.45435 59.1367 8.95435 65.1359 7.45435C71.1352 5.95435 72.1367 8.95435 70.6367 12.4543C69.1367 15.9543 68.1367 12.4543 68.1367 19.4543C68.1367 26.4543 74.1367 22.4543 77.1367 21.4543C80.1367 20.4543 82.1367 14.9543 84.6367 12.4543C87.1367 9.95435 91.1367 11.4543 95.1367 12.4543C99.1367 13.4543 95.1367 15.9543 91.1367 19.4543C87.1367 22.9543 85.1367 25.4543 84.6367 30.9543C84.1367 36.4543 87.6367 38.4543 100.137 46.4543C112.637 54.4543 112.137 45.4544 113.637 39.9543C115.137 34.4543 111.637 26.9544 109.637 19.4543C108.037 13.4543 100.637 8.95434 97.1367 7.45435C90.9701 6.12102 77.0367 3.05436 70.6367 1.45436C64.2367 -0.145636 55.6367 2.12103 52.1367 3.45436C36.47 7.7877 4.53645 16.5544 2.13594 16.9544C-0.864699 17.4544 0.636579 22.9544 4.13658 26.9544C7.63658 30.9544 6.13658 29.9544 5.13658 32.9544C4.13658 35.9544 2.63594 38.4544 2.13594 45.4544C1.63594 52.4544 15.6359 56.9544 24.6359 58.9544Z" stroke="#FF4040"/>
</svg>
