<svg width="117" height="72" viewBox="0 0 117 72" fill="none" xmlns="http://www.w3.org/2000/svg">
<path d="M57.5089 1.15301H12.0089C3.50889 1.15301 0.508887 9.15283 1.50889 12.1528C2.50889 15.1528 5.50889 12.1528 7.50889 12.1528C9.50889 12.1528 10.0089 13.6528 11.5089 14.1528C13.0089 14.6528 13.0089 12.1528 13.5089 10.1528C14.0089 8.15283 15.0089 10.1528 16.0089 12.1528C17.0089 14.1528 17.0089 14.6528 17.5089 17.6528C17.1089 23.6528 20.0089 24.1528 21.5089 23.6528H38.5089C45.0089 23.6528 50.0089 24.1528 55.5089 26.1528C61.0089 28.1528 61.5089 29.1528 63.5089 32.6528C65.5089 36.1528 69.5089 35.1528 73.5089 35.1528C77.5089 35.1528 78.5089 35.1528 81.0089 37.1528C83.5089 39.1528 83.5089 41.1528 86.0089 43.1528C88.0089 44.7528 90.5089 46.8195 91.5089 47.6528V65.1528C91.5089 75.1528 95.0089 70.6528 98.0089 67.6528C101.009 64.6528 100.509 64.1528 98.0089 63.1528C96.0089 62.3528 97.1756 58.1528 98.0089 56.1528C102.342 45.6528 111.709 23.6528 114.509 19.6528C118.009 14.6528 114.509 10.6528 112.509 10.1528C110.509 9.65283 111.009 7.65301 111.009 3.65301C111.009 0.45301 105.009 0.65301 102.009 1.15301H57.5089Z" stroke="#FF4040"/>
</svg>
