<svg width="116" height="62" viewBox="0 0 116 62" fill="none" xmlns="http://www.w3.org/2000/svg">
<path d="M13.0055 3.85052C8.50549 5.35052 7.50549 7.35052 4.50549 10.3505C-0.494513 13.3507 1.50623 14.8503 2.50623 16.8503C3.50623 18.8503 4.50549 23.3503 4.00549 27.8503C3.50549 32.3503 6.00549 30.8503 9.50549 29.8503C13.0055 28.8503 13.0055 29.8503 18.0055 29.8503C23.0055 29.8503 26.0055 29.8503 28.0055 30.8503C30.0055 31.8503 31.0055 28.8503 33.0055 28.8503C35.0055 28.8503 43.0055 30.8503 49.0055 32.3503C55.0055 33.8503 94.5055 54.8503 102.505 59.3503C110.505 63.8503 109.505 58.8503 113.005 51.8503C116.506 46.3503 114.672 45.017 113.005 44.3503C104.172 39.517 85.6055 29.3503 82.0055 27.3503C78.4055 25.3503 76.5055 25.8503 76.0055 26.3503C75.6721 26.6837 74.6055 28.3503 73.0055 32.3503C71.4055 36.3503 68.6721 35.017 67.5055 33.8503L62.5055 30.8503C61.0055 29.8503 57.6055 28.2503 56.0055 29.8503C54.4055 31.4503 53.0055 31.1837 52.5055 30.8503C48.0055 29.6837 38.4055 27.1503 36.0055 26.3503C33.6055 25.5503 34.6722 24.017 35.5055 23.3503C36.5055 22.3503 38.7055 20.0503 39.5055 18.8503C40.5055 17.3503 39.0055 17.3503 38.0055 16.8503C37.0055 16.3503 38.0055 15.8503 38.0055 14.8503C38.0055 13.8503 37.5055 13.8503 36.5055 13.3503C35.5055 12.8503 36.5055 12.3503 37.5055 11.8503C39.5055 10.6503 36.6722 8.35034 35.0055 7.35034C32.3388 6.18373 26.3055 3.45052 23.5055 1.85052C20.0055 -0.149483 17.5055 2.35052 13.0055 3.85052Z" stroke="#FF4040"/>
</svg>
