<svg width="85" height="82" viewBox="0 0 85 82" fill="none" xmlns="http://www.w3.org/2000/svg">
<path d="M0.833439 7.24847V68.7485C0.832422 72.2485 0.233439 77.7485 5.83344 77.7485C11.4334 77.7485 11.7019 73.2485 11.8334 70.7485C12.0001 67.5819 12.3334 59.8485 12.3334 54.2485C12.3334 47.2485 19.8334 49.7485 21.8334 52.7485C23.8334 55.7485 21.8334 64.7485 19.8334 71.7485C18.2334 77.3485 22.5001 79.0819 24.8334 79.2485C28.8334 79.7485 38.5334 80.8485 45.3334 81.2485C53.8334 81.7485 53.8334 78.2485 54.3334 74.7485C54.8334 71.2485 55.3334 67.2485 56.8334 64.7485C58.3334 62.2485 66.3334 60.7485 72.3334 59.2485C78.3334 57.7485 72.8334 51.2485 70.8334 47.2485C69.2334 44.0485 70.1668 40.9152 70.8334 39.7485C72.6668 37.2485 76.7334 31.9485 78.3334 30.7485C80.3334 29.2485 81.8334 30.7485 83.3334 29.2485C84.8334 27.7485 83.3334 26.2485 83.3334 24.7485C83.3334 23.2485 81.8334 17.2485 81.8334 11.7485C79.3334 3.24854 72.8334 9.74854 69.8334 14.2485C66.8334 18.7485 64.8334 18.7485 62.8334 20.2485C60.8334 21.7485 56.3334 21.2485 50.8334 22.7485C45.3334 24.2485 36.8334 25.7485 31.8334 26.2485C26.8334 26.7485 25.8334 25.7485 21.8334 34.2485C17.8334 42.7485 13.8334 37.7485 12.3334 35.7485C10.8334 33.7485 11.8334 30.2485 12.3334 18.7485C12.8334 7.24854 8.83344 4.24847 4.83344 1.24847C1.63344 -1.15153 0.833439 4.24847 0.833439 7.24847Z" stroke="#FF4040"/>
</svg>
