<svg width="116" height="55" viewBox="0 0 116 55" fill="none" xmlns="http://www.w3.org/2000/svg">
<path d="M16.7675 10.8086C20.7675 13.3086 22.7675 16.3086 27.7675 22.3086L29.7676 24.3086C30.7676 25.3086 30.7676 25.3086 29.7676 27.3086C28.7676 29.3086 30.7676 30.8086 32.7676 33.8086C34.7676 36.8086 49.7676 47.3086 55.2676 50.3086C60.7676 53.3086 63.7676 51.3086 64.7676 48.8086C65.5676 46.8086 67.7676 47.9753 68.7676 48.8086C70.4342 49.9753 74.5676 52.6086 77.7676 53.8086C81.7676 55.3086 82.2676 53.3086 83.7676 52.3086C85.2676 51.3086 86.7676 51.3086 89.7676 51.3086C92.7676 51.3086 92.7676 51.3086 93.7676 53.3086C94.7676 55.3086 98.2676 53.8086 100.768 53.3086C103.268 52.8086 105.768 51.3086 108.768 50.3086C111.768 49.3086 111.768 48.3086 114.268 45.3086C116.768 38.8086 112.268 41.3086 109.768 42.8086C107.268 44.3086 105.768 41.8086 104.268 40.3086C102.768 38.8086 99.7676 37.3086 95.2676 35.3086C90.7676 33.3086 75.7676 28.3086 72.7676 27.3086C69.7676 26.3086 71.2676 25.8086 72.2676 25.3086C73.8676 24.1086 68.9342 22.1419 66.2676 21.3086C56.6009 17.4753 36.3676 9.50859 32.7676 8.30859C28.2676 6.80859 18.2676 4.80864 13.7676 3.80859C9.26758 2.80855 8.76758 3.80864 6.76758 2.80864C4.76758 1.80864 2.76752 -0.191364 1.76752 1.80864C0.767518 3.80864 2.26752 4.80864 4.26752 4.80864C6.26752 4.80864 12.7675 8.30864 16.7675 10.8086Z" stroke="#FF4040"/>
</svg>
