<svg width="117" height="65" viewBox="0 0 117 65" fill="none" xmlns="http://www.w3.org/2000/svg">
<path d="M1.55901 63.6505C4.35901 64.8505 7.05901 63.1505 8.05901 62.1505C8.89221 61.3172 10.8586 59.2507 12.0586 57.6507C13.5586 55.6507 17.0586 56.1507 19.5586 56.1507H25.0586C26.5586 56.1507 26.5586 55.1507 28.0586 55.1507C29.5586 55.1507 29.0586 56.1507 30.0586 57.1505L30.0591 57.151C31.0588 58.1504 31.5591 58.6507 34.5586 58.6507C37.5586 58.6507 39.0586 57.1505 40.5586 56.1507C42.0586 55.1509 45.5586 51.1505 47.5586 49.6507C49.5586 48.1509 51.0586 48.6507 54.0586 48.1507C57.0586 47.6507 57.0586 46.1506 58.0586 44.1507C59.0586 42.1508 60.5586 41.1507 62.5586 39.1507C64.5586 37.1507 68.0586 36.1507 69.0586 35.6507C70.0586 35.1507 73.5586 35.6507 75.0586 35.6507C76.5586 35.6507 76.5586 33.6506 76.5586 32.1507C76.5586 30.6508 78.5586 29.6507 80.5586 28.1507C82.1586 26.9507 85.5586 27.6507 87.0586 28.1507H97.0586C101.559 28.1507 107.559 22.1507 110.559 19.6507C112.959 17.6507 114.892 11.1506 115.559 8.15059C115.892 6.48392 116.359 2.85059 115.559 1.65059C114.759 0.450588 111.892 2.15059 110.559 3.15059L102.059 8.15059L76.5586 27.1506C75.0586 28.1506 73.5586 29.6506 74.0586 31.1506C74.5586 32.6506 73.5586 33.1506 72.5586 33.6506C71.5586 34.1506 70.5586 33.6506 68.0586 33.6506C65.6586 34.0506 65.7253 34.1506 66.0586 34.1506C63.7253 35.6506 58.6586 38.8506 57.0586 39.6506C55.0586 40.6506 55.0586 41.6506 55.0586 43.1506C55.0586 44.6506 54.0586 45.1506 51.5586 46.1506C49.0586 47.1506 49.5586 46.1506 47.5586 45.6506C44.5586 45.1506 43.5586 47.1506 42.5586 47.6506C41.5586 48.1506 41.5586 50.6506 41.0586 51.6505C40.5586 52.6504 36.5586 53.6506 34.5586 54.1506C32.5586 54.6506 32.5586 52.6506 30.5586 51.1505C28.5586 50.1505 28.0586 51.1505 26.5586 51.6505C25.0586 52.1505 24.5586 51.6505 23.5586 51.1505C21.9586 50.3505 18.2253 51.4838 16.5586 52.1505C13.2254 53.6505 5.95901 56.7505 3.55901 57.1505C0.559014 57.6505 0.559014 60.6505 1.55901 63.6505Z" stroke="#FF4040"/>
</svg>
