<svg width="98" height="85" viewBox="0 0 98 85" fill="none" xmlns="http://www.w3.org/2000/svg">
<path d="M4.4396 34.2155C0.939604 40.7155 0.439604 39.7155 0.939604 45.7155C2.43976 53.2157 15.9395 52.7153 21.4395 52.7153C26.9395 52.7153 30.9395 50.2153 33.4395 48.2153C35.9395 46.2153 40.4395 44.7153 43.4395 44.7153C46.4395 44.7153 50.9395 46.7153 56.9395 47.2153C62.9395 47.7153 67.4395 45.2153 69.9395 44.2153C72.4395 43.2153 76.4395 42.2155 78.9395 43.7153C82.4395 48.7153 77.9395 49.7153 73.9395 51.7153C69.9395 53.7153 68.9395 54.7153 68.9395 59.2153C68.9395 63.7153 68.9395 64.7153 66.9395 70.2153C64.9395 75.7153 63.4395 77.7153 63.4395 82.2153C67.8395 86.2153 70.2728 82.882 70.9395 80.7153C74.2728 72.2153 83.3395 50.0153 92.9395 29.2153C104.939 3.21533 87.4395 1.71553 77.9395 1.21553C70.3395 0.815531 70.1061 6.04886 70.9395 8.71553C71.7728 11.3822 73.8395 18.9155 75.4395 27.7155C77.4395 38.7155 71.4395 35.7155 68.9395 34.2155C65.9395 28.7155 63.4395 34.2155 61.4395 34.2155C59.4395 34.2155 52.9395 37.7155 45.4395 39.7155C37.9395 41.7155 28.4395 42.7155 18.9395 42.2155C9.43945 41.7155 14.4395 34.2155 16.9395 31.7155C19.4395 29.2155 28.4395 30.2155 31.9395 27.7155C35.4395 25.2155 30.9395 21.7155 28.4395 19.7155C25.9395 17.7155 21.9395 16.7155 16.9395 16.7155C11.9395 16.7155 11.9395 19.2155 9.43945 24.2155C6.93945 29.2155 7.9396 27.7155 4.4396 34.2155Z" stroke="#FF4040"/>
</svg>
