<svg width="115" height="83" viewBox="0 0 115 83" fill="none" xmlns="http://www.w3.org/2000/svg">
<path d="M22.4548 5.57437C15.6548 -6.42563 14.9551 8.07446 13.9548 16.0744L8.95508 50.5745C8.45498 53.7411 7.95485 60.5745 9.95508 62.5745C11.9553 66.5745 10.7885 69.9078 9.95508 71.0745C9.12165 71.9078 6.6548 74.1745 3.4548 76.5745C-1.7452 80.5745 3.9548 81.5745 7.4548 81.5745C29.7881 81.4078 77.9548 81.1745 91.9548 81.5745C109.455 82.0745 108.955 80.0745 112.455 76.5745C115.255 73.7745 113.621 69.4078 112.455 67.5745C106.121 51.0745 92.6548 16.0745 89.4548 8.07446C86.2548 0.0744591 81.7881 3.0744 79.9548 5.57437C79.2881 6.40773 76.1548 9.67444 68.9548 16.0744C61.9548 30.0743 69.4548 34.0745 71.9548 36.5745C74.4548 39.0745 82.4548 40.5745 89.4548 43.0745C102.655 57.8745 94.9548 62.2411 89.4548 62.5745C76.7881 62.4078 48.1548 62.1745 34.9548 62.5745C18.4548 63.0745 24.4548 58.5745 26.4548 54.5745C28.0548 51.3745 32.7881 51.5745 34.9548 52.0745C35.7881 52.2411 40.7548 52.9745 53.9548 54.5745C70.3359 56.5601 62.076 50.6605 51.6814 43.2363L51.4548 43.0745C40.9548 35.5745 42.4548 32.5745 42.4548 30.0745C42.9548 16.0745 39.4548 16.0744 32.4548 13.5745C25.4548 11.0746 25.9548 8.57446 22.4548 5.57437Z" stroke="#FF4040"/>
</svg>
