<svg width="114" height="73" viewBox="0 0 114 73" fill="none" xmlns="http://www.w3.org/2000/svg">
<path d="M11.4209 29.8099C9.82087 33.8099 6.08754 39.8099 4.42087 42.3099C1.42087 47.1024 0.920871 48.8101 1.42087 50.8101C1.92087 52.8101 3.42087 53.8101 5.92087 54.3101C8.42087 54.8101 8.42087 55.8101 8.42087 58.3101C8.42087 60.8101 10.4209 63.3101 11.4209 64.3101C12.4209 65.3101 15.4209 66.3101 18.4209 70.3101C21.4209 74.3101 21.9209 67.8101 22.4209 63.3101C22.9209 58.8101 27.9209 39.8101 29.4209 34.8101C30.6209 30.8101 32.9209 32.4767 33.9209 33.8101C36.0875 35.6434 41.1209 39.91 43.9209 42.3099C46.7209 44.7098 53.0875 44.9766 55.9209 44.8101C62.9209 45.3101 77.7209 46.3101 80.9209 46.3101C84.9209 46.3101 84.9209 47.8101 84.4209 50.8101C84.0209 53.2101 87.2542 53.8101 88.9209 53.8101C92.9209 53.9767 102.321 54.3101 107.921 54.3101C112.721 52.3101 113.254 46.8101 112.921 44.3101C111.588 33.8101 108.921 11.9101 108.921 8.31006C108.921 3.81006 105.921 5.31006 103.421 5.81006C100.921 6.31006 100.921 3.81006 99.9209 1.8102C96.4209 -1.6898 94.9209 3.3102 94.9209 6.3102C94.9209 9.3102 95.9209 11.8102 97.9209 15.8102C99.9209 19.8102 100.421 24.8102 100.921 28.8102C101.321 32.0102 97.0875 32.1435 94.9209 31.8102C87.4209 31.4769 71.3209 30.7102 66.9209 30.3102C62.5209 29.9102 58.7542 27.8101 57.4209 26.8101C53.0875 24.1435 43.8209 18.4101 41.4209 16.8101C39.0209 15.2101 38.0875 16.4768 37.9209 17.3101C36.9209 18.4767 34.2209 22.01 31.4209 26.8101C28.6209 31.6103 26.5875 28.8102 25.9209 26.8101C24.4209 25.1434 20.8209 21.6099 18.4209 20.8099C15.4209 19.8099 13.4209 24.8099 11.4209 29.8099Z" stroke="#FF4040"/>
</svg>
