<svg width="115" height="68" viewBox="0 0 115 68" fill="none" xmlns="http://www.w3.org/2000/svg">
<path d="M6.91649 35.4149C3.71649 36.6149 1.91649 40.9149 1.41649 42.9149C0.916488 45.0814 0.216488 49.4146 1.41649 49.4146C2.61649 49.4146 4.91649 50.4146 5.91649 50.9146C11.9165 54.0812 25.6165 61.1146 32.4165 63.9146C39.2165 66.7146 48.2498 66.7479 51.9165 66.4146C66.0832 66.7479 96.2165 67.4146 103.416 67.4146C112.416 67.4146 110.416 66.9146 110.416 65.4146C110.416 63.9146 111.416 62.9146 112.916 61.4146C114.116 60.2146 114.083 58.5812 113.916 57.9146V22.9146C113.916 12.9146 106.916 10.9146 101.416 5.91455C95.9165 0.914551 94.9165 1.41472 93.4165 2.41485C91.9165 3.41499 93.4165 6.91455 97.4165 12.4146C100.616 16.8146 93.7498 19.2479 89.9165 19.9146C79.2498 20.2479 56.1165 20.9146 48.9165 20.9146C39.9165 20.9146 42.4165 18.4146 42.4165 10.9146C42.4165 3.41455 37.4165 2.41485 35.4165 1.41472C33.4165 0.414579 30.9165 0.414715 30.4165 2.41485C29.9165 4.41499 29.4165 3.91485 25.4165 2.41485C22.2165 1.21485 21.7498 2.91485 21.9165 3.91485V21.9149C21.9165 33.4148 10.9165 33.9149 6.91649 35.4149Z" stroke="#FF4040"/>
</svg>
